<svg width="170" height="22" viewBox="0 0 170 22" fill="none" xmlns="http://www.w3.org/2000/svg">
<path d="M26.3604 8.01542C26.3604 5.15313 25.5267 3.18009 24.0539 2.01294C22.6366 0.76243 20.3579 0.151066 17.3567 0.151066H0.433022V21.9656H7.90833V15.852C7.90833 15.852 16.4674 15.8798 17.4678 15.852C20.6914 15.8242 23.1646 15.0461 24.6652 13.3232C25.7768 12.1004 26.3604 10.3497 26.3604 8.01542ZM18.8573 8.12658C18.8573 8.82131 18.7461 9.32152 18.5238 9.71057C18.0792 10.4053 17.1621 10.7666 15.6059 10.7666H7.85275V5.43102H15.6615C17.1066 5.43102 17.9958 5.76449 18.4682 6.45923C18.7183 6.7927 18.8573 7.40406 18.8573 8.12658Z" fill="white"/>
<path d="M37.0047 21.9656V0.151066H29.3627V21.9656H37.0047Z" fill="white"/>
<path d="M48.8336 17.9362H60.6163L62.5337 21.9656H70.5648L59.5603 0.151066H50.5844L38.9407 21.9656H46.805L48.8336 17.9362ZM58.2542 13.0453H51.2791L54.0302 7.79311L54.8639 5.79228L55.642 7.76532L58.2542 13.0453Z" fill="white"/>
<path d="M98.0742 21.9656V0.151066H90.9602V12.0171L80.4836 0.151066H72.647V21.9656H79.8167V9.82172L90.6267 21.9656H98.0742Z" fill="white"/>
<path d="M110.087 21.9656V0.151066H102.445V21.9656H110.087Z" fill="white"/>
<path d="M138.34 5.62555V0.151066H112.301V5.62555H121.499V21.9656H129.113V5.62555H138.34Z" fill="white"/>
<path d="M169.384 0.151066H161.158L154.072 8.87689L147.18 0.151066H138.704L150.237 14.796V21.9656H157.712V14.7682L169.384 0.151066Z" fill="white"/>
</svg>
